# xmcd CD database file
#
# Track frame offsets:
#	150
#	18738
#	36780
#	53592
#	74778
#	92131
#	111782
#	130810
#	143281
#	160565
#	189186
#	236785
#
# Disc length: 3710 seconds
#
# Revision: 0
# Processed by: cddbd v1.5.2PL0 Copyright (c) Steve Scherf et al.
# Submitted via: jetAudio 7
#
DISCID=9b0e7c0c
DTITLE=Eric Burdon - No more war
DYEAR=1900
DGENRE=Unknown Genre
TTITLE0=No more war
TTITLE1=It´s too Late
TTITLE2=Love is for all time
TTITLE3=The night
TTITLE4=Heart attack
TTITLE5=Tango
TTITLE6=Young girls
TTITLE7=Devil´s daughter
TTITLE8=16 tons
TTITLE9=Hook from Holland
TTITLE10=Tobacco Road
TTITLE11=For your love
EXTD=
EXTT0=
EXTT1=
EXTT2=
EXTT3=
EXTT4=
EXTT5=
EXTT6=
EXTT7=
EXTT8=
EXTT9=
EXTT10=
EXTT11=
PLAYORDER=
